<svg id="svg" version="1.1" width="400" height="400" xmlns="http://www.w3.org/2000/svg" xmlns:xlink="http://www.w3.org/1999/xlink" style="display: block;"><g id="svgg"><path id="path0" d="M0.000 200.000 L 0.000 400.000 200.000 400.000 L 400.000 400.000 400.000 200.000 L 400.000 0.000 200.000 0.000 L 0.000 0.000 0.000 200.000 M317.400 1.592 C 325.540 1.791,333.190 2.158,334.400 2.410 C 338.937 3.351,343.986 4.716,346.200 5.600 C 346.640 5.776,347.630 6.136,348.400 6.400 C 351.065 7.315,358.014 10.583,360.800 12.232 C 375.285 20.802,388.296 35.866,393.597 50.200 C 393.760 50.640,394.097 51.495,394.346 52.100 C 395.400 54.656,395.546 55.048,395.794 56.000 C 396.045 56.965,396.308 57.897,397.233 61.100 C 399.431 68.708,399.394 66.307,399.394 200.800 C 399.394 335.538,399.436 332.844,397.207 340.600 C 396.954 341.480,396.601 342.830,396.424 343.600 C 395.995 345.457,395.216 347.598,394.353 349.295 C 394.159 349.677,394.000 350.183,394.000 350.420 C 394.000 350.882,392.270 354.702,390.294 358.600 C 384.719 369.603,372.772 382.449,362.600 388.376 C 356.849 391.728,350.559 394.800,349.449 394.800 C 349.118 394.800,348.758 394.944,348.649 395.121 C 348.540 395.297,347.528 395.693,346.400 396.000 C 345.272 396.307,344.260 396.703,344.151 396.879 C 344.042 397.056,343.511 397.200,342.971 397.200 C 342.431 397.200,341.677 397.364,341.295 397.565 C 340.913 397.765,339.520 398.138,338.200 398.393 C 336.880 398.648,335.149 399.024,334.354 399.228 C 332.428 399.723,67.606 399.730,65.646 399.235 C 64.851 399.034,63.210 398.657,62.000 398.397 C 60.790 398.138,59.260 397.766,58.600 397.572 C 56.267 396.883,52.190 395.543,51.400 395.205 C 50.960 395.016,49.796 394.533,48.813 394.131 C 35.362 388.627,22.452 378.133,14.337 366.106 C 11.166 361.407,7.079 353.499,5.601 349.200 C 5.336 348.430,4.978 347.440,4.805 347.000 C 4.633 346.560,4.270 345.390,3.999 344.400 C 3.729 343.410,3.361 342.150,3.183 341.600 C 3.005 341.050,2.671 339.700,2.441 338.600 C 2.211 337.500,1.830 335.727,1.595 334.659 C 0.489 329.638,-0.125 143.522,0.790 90.800 C 1.185 68.088,1.317 66.563,3.573 58.700 C 3.778 57.985,4.063 56.950,4.206 56.400 C 4.350 55.850,4.615 55.040,4.796 54.600 C 4.977 54.160,5.427 52.990,5.796 52.000 C 6.891 49.056,9.174 44.010,9.595 43.600 C 9.708 43.490,10.412 42.230,11.160 40.800 C 15.481 32.537,23.672 23.281,32.342 16.863 C 36.963 13.442,44.215 9.200,45.441 9.200 C 45.748 9.200,46.000 9.020,46.000 8.800 C 46.000 8.580,46.324 8.400,46.720 8.400 C 47.116 8.400,47.611 8.248,47.820 8.062 C 48.029 7.877,49.280 7.322,50.600 6.830 C 51.920 6.339,53.313 5.770,53.695 5.568 C 54.077 5.366,54.664 5.200,55.000 5.200 C 55.336 5.200,55.923 5.032,56.305 4.826 C 57.156 4.368,62.473 3.056,66.000 2.435 C 71.803 1.412,281.212 0.710,317.400 1.592 M176.600 126.648 C 166.423 127.556,162.103 128.730,158.101 131.678 C 154.148 134.590,154.023 135.768,157.532 137.030 C 169.187 141.223,170.765 145.338,170.786 171.600 C 170.800 189.098,170.216 193.186,166.811 199.400 C 164.057 204.426,157.570 202.091,150.706 193.603 C 148.628 191.033,139.600 177.912,139.600 177.462 C 139.600 177.376,138.311 175.167,136.735 172.553 C 134.020 168.048,127.844 156.035,122.366 144.600 C 118.966 137.505,118.160 136.410,115.154 134.808 L 112.647 133.472 104.263 133.101 C 98.945 132.866,91.040 132.877,82.640 133.131 C 60.797 133.792,60.854 133.707,69.675 152.400 C 73.997 161.559,81.278 175.840,85.863 184.149 C 86.818 185.880,87.600 187.383,87.600 187.487 C 87.600 187.591,87.933 188.154,88.339 188.738 C 88.745 189.322,89.621 190.790,90.285 192.000 C 92.347 195.759,95.625 201.321,96.839 203.120 C 97.478 204.066,98.000 204.938,98.000 205.058 C 98.000 205.286,110.259 223.756,112.357 226.688 C 113.846 228.770,122.510 239.685,124.179 241.583 C 128.194 246.147,134.100 252.070,138.000 255.443 C 138.990 256.299,139.890 257.091,140.000 257.202 C 145.469 262.734,165.947 272.591,176.600 274.820 C 185.188 276.618,216.655 277.376,218.920 275.841 C 220.874 274.517,221.789 272.102,222.425 266.600 C 224.244 250.852,228.511 243.939,235.796 244.937 C 239.048 245.383,241.689 247.299,247.800 253.645 C 265.172 271.686,270.003 275.906,276.491 278.711 L 279.626 280.066 302.913 279.900 C 327.803 279.722,327.383 279.757,330.980 277.576 C 334.880 275.213,335.982 272.085,334.399 267.878 C 333.683 265.973,327.734 256.309,326.841 255.600 C 326.702 255.490,325.788 254.410,324.810 253.200 C 321.855 249.546,314.115 241.327,308.622 236.011 C 298.921 226.622,294.230 221.561,292.347 218.451 C 288.922 212.796,290.885 208.565,306.720 187.462 C 310.394 182.566,313.717 178.119,314.105 177.580 C 314.493 177.041,316.001 174.980,317.457 173.000 C 320.317 169.110,326.891 159.378,327.319 158.400 C 327.464 158.070,328.123 156.900,328.785 155.800 C 336.694 142.655,337.043 135.030,329.777 134.140 C 326.155 133.697,284.579 133.698,279.437 134.142 C 273.751 134.633,273.755 134.629,266.562 150.600 C 254.939 176.407,238.859 199.269,230.755 201.506 C 227.649 202.364,225.583 200.266,222.851 193.481 C 222.531 192.689,222.400 184.205,222.400 164.403 L 222.400 136.443 221.037 134.121 C 217.965 128.891,214.712 127.728,200.000 126.603 C 190.835 125.901,184.836 125.913,176.600 126.648 " stroke="none" fill="#ffffff" fill-rule="evenodd"></path><path id="path1" d="M126.800 2.395 C 63.254 2.954,62.348 3.008,53.400 6.784 C 52.960 6.970,51.520 7.534,50.200 8.037 C 48.880 8.540,47.210 9.277,46.488 9.676 C 45.766 10.074,44.911 10.400,44.588 10.400 C 44.265 10.400,44.000 10.580,44.000 10.800 C 44.000 11.020,43.655 11.200,43.233 11.200 C 42.812 11.200,42.407 11.335,42.333 11.500 C 42.166 11.876,40.036 13.175,39.100 13.471 C 38.715 13.593,38.400 13.852,38.400 14.047 C 38.400 14.241,38.192 14.400,37.938 14.400 C 37.684 14.400,36.830 14.895,36.041 15.500 C 35.251 16.105,33.949 17.050,33.146 17.600 C 27.022 21.795,15.154 34.478,13.683 38.400 C 13.560 38.730,13.355 39.090,13.229 39.200 C 12.859 39.523,11.630 41.680,10.894 43.300 C 10.518 44.125,10.074 44.800,9.906 44.800 C 9.738 44.800,9.600 45.160,9.600 45.600 C 9.600 46.040,9.420 46.400,9.200 46.400 C 8.980 46.400,8.800 46.672,8.800 47.005 C 8.800 47.338,8.635 47.923,8.434 48.305 C 6.373 52.212,4.807 57.160,3.213 64.800 L 2.086 70.200 1.648 135.500 C 1.331 182.800,1.331 218.800,1.648 266.100 L 2.086 331.400 3.213 336.800 C 4.635 343.617,4.742 344.005,6.802 349.800 C 6.958 350.240,7.472 351.382,7.943 352.338 C 8.414 353.294,8.800 354.329,8.800 354.638 C 8.800 354.947,8.980 355.200,9.200 355.200 C 9.420 355.200,9.600 355.560,9.600 356.000 C 9.600 356.440,9.738 356.800,9.906 356.800 C 10.074 356.800,10.522 357.475,10.901 358.300 C 12.254 361.244,16.993 368.434,18.967 370.538 C 19.205 370.792,20.390 372.170,21.600 373.600 C 24.221 376.697,23.924 376.401,27.410 379.404 C 32.346 383.658,35.662 386.125,38.847 387.914 C 39.641 388.360,40.720 388.967,41.245 389.262 C 41.770 389.558,42.290 389.890,42.400 390.000 C 42.862 390.462,46.121 392.000,46.638 392.000 C 46.947 392.000,47.200 392.180,47.200 392.400 C 47.200 392.620,47.472 392.800,47.805 392.800 C 48.138 392.800,48.723 392.959,49.105 393.153 C 49.487 393.348,50.340 393.729,51.000 394.000 C 51.660 394.271,52.513 394.652,52.895 394.847 C 53.277 395.041,53.864 395.200,54.200 395.200 C 54.536 395.200,55.123 395.365,55.505 395.567 C 56.429 396.056,61.813 397.419,65.840 398.185 C 69.919 398.959,329.467 399.138,333.269 398.369 C 338.197 397.372,341.061 396.733,342.000 396.423 C 342.550 396.241,343.810 395.859,344.800 395.574 C 345.790 395.289,346.780 394.934,347.000 394.786 C 347.220 394.638,348.255 394.271,349.300 393.971 C 350.345 393.671,351.200 393.285,351.200 393.113 C 351.200 392.941,351.425 392.801,351.700 392.803 C 352.333 392.807,358.954 389.512,359.133 389.104 C 359.207 388.937,359.439 388.800,359.649 388.800 C 360.922 388.800,371.890 380.524,375.807 376.607 C 379.724 372.690,388.000 361.722,388.000 360.449 C 388.000 360.239,388.137 360.007,388.304 359.933 C 388.712 359.754,392.007 353.133,392.003 352.500 C 392.001 352.225,392.180 352.000,392.400 352.000 C 392.620 352.000,392.800 351.651,392.800 351.224 C 392.800 350.797,392.980 350.336,393.200 350.200 C 393.420 350.064,393.600 349.549,393.600 349.056 C 393.600 348.563,393.749 347.989,393.930 347.780 C 394.112 347.571,394.493 346.590,394.776 345.600 C 395.059 344.610,395.431 343.440,395.603 343.000 C 398.291 336.096,398.357 333.544,398.647 224.600 C 398.938 115.621,398.528 72.237,397.145 65.475 C 396.686 63.234,396.228 60.950,396.126 60.400 C 396.023 59.850,395.794 59.040,395.615 58.600 C 395.437 58.160,395.059 56.990,394.776 56.000 C 394.493 55.010,394.112 54.029,393.930 53.820 C 393.749 53.611,393.600 53.026,393.600 52.520 C 393.600 52.014,393.420 51.600,393.200 51.600 C 392.980 51.600,392.800 51.251,392.800 50.824 C 392.800 50.397,392.620 49.936,392.400 49.800 C 392.180 49.664,392.000 49.203,392.000 48.776 C 392.000 48.349,391.820 48.000,391.600 48.000 C 391.380 48.000,391.200 47.747,391.200 47.438 C 391.200 46.920,389.661 43.660,389.199 43.200 C 389.089 43.090,388.733 42.460,388.409 41.800 C 383.791 32.400,371.021 19.228,361.153 13.686 C 360.359 13.240,359.280 12.633,358.755 12.338 C 358.230 12.042,357.710 11.708,357.600 11.595 C 357.490 11.482,356.545 10.987,355.500 10.495 C 343.399 4.797,337.334 3.314,324.000 2.794 C 311.413 2.302,169.907 2.016,126.800 2.395 M203.400 125.556 C 210.893 126.284,212.413 126.497,212.630 126.849 C 212.749 127.042,213.256 127.200,213.756 127.200 C 216.085 127.200,219.473 129.609,221.352 132.600 C 223.904 136.665,223.754 134.780,223.403 158.290 C 223.227 170.120,223.067 180.970,223.049 182.400 C 223.005 185.822,223.572 192.788,223.978 193.800 C 226.496 200.083,229.080 201.812,232.675 199.619 C 234.012 198.804,241.600 191.318,241.600 190.814 C 241.600 190.653,241.980 190.090,242.444 189.561 C 244.820 186.856,251.831 176.251,255.245 170.200 C 255.989 168.880,256.908 167.260,257.285 166.600 C 258.752 164.037,264.424 152.311,266.959 146.600 C 271.809 135.676,272.986 133.969,276.231 133.152 C 281.537 131.817,331.125 132.401,333.538 133.827 C 339.293 137.226,336.312 147.497,324.488 165.012 C 319.261 172.755,310.844 184.480,309.997 185.200 C 309.867 185.310,309.329 186.030,308.800 186.800 C 308.271 187.570,307.731 188.290,307.600 188.400 C 307.469 188.510,306.929 189.230,306.400 190.000 C 305.871 190.770,305.339 191.490,305.217 191.600 C 304.080 192.626,294.800 206.156,294.800 206.787 C 294.800 207.014,294.664 207.200,294.498 207.200 C 294.331 207.200,293.960 207.785,293.671 208.500 C 293.383 209.215,292.979 210.113,292.774 210.495 C 292.269 211.432,292.291 216.800,292.800 216.800 C 293.020 216.800,293.200 217.028,293.200 217.306 C 293.200 218.393,297.771 223.439,307.965 233.609 C 320.346 245.961,323.979 249.885,328.319 255.600 C 337.863 268.166,338.794 274.160,331.879 278.511 C 327.649 281.171,329.665 280.989,303.086 281.123 L 278.772 281.245 276.686 280.266 C 275.539 279.727,274.330 279.181,274.000 279.052 C 269.439 277.273,263.923 272.310,248.649 256.242 C 240.078 247.225,237.471 245.550,233.040 246.215 C 228.354 246.918,224.933 253.796,223.595 265.200 C 222.638 273.362,221.792 275.689,219.261 277.123 C 217.880 277.905,206.387 278.136,193.800 277.635 C 181.794 277.156,178.391 276.758,173.000 275.197 C 172.120 274.943,170.903 274.638,170.295 274.521 C 169.687 274.404,169.092 274.149,168.971 273.954 C 168.851 273.759,168.324 273.600,167.800 273.600 C 167.276 273.600,166.736 273.420,166.600 273.200 C 166.464 272.980,166.064 272.800,165.711 272.800 C 163.444 272.800,143.437 262.246,142.867 260.750 C 142.793 260.557,142.555 260.400,142.338 260.400 C 142.121 260.400,141.714 260.175,141.435 259.900 C 141.155 259.625,140.330 258.950,139.601 258.400 C 135.796 255.530,128.101 248.026,124.192 243.372 C 123.097 242.067,121.927 240.730,121.593 240.400 C 120.566 239.386,117.878 236.007,114.433 231.400 C 112.624 228.980,110.913 226.714,110.631 226.365 C 108.936 224.262,96.000 204.633,96.000 204.163 C 96.000 204.043,95.460 203.159,94.800 202.200 C 94.140 201.241,93.600 200.341,93.600 200.200 C 93.600 200.059,93.060 199.159,92.400 198.200 C 91.740 197.241,91.200 196.336,91.200 196.190 C 91.200 196.043,90.867 195.446,90.461 194.862 C 90.055 194.278,89.124 192.720,88.393 191.400 C 85.115 185.482,81.284 178.359,80.000 175.795 C 79.230 174.258,78.498 172.910,78.373 172.800 C 78.031 172.497,67.945 151.973,65.870 147.357 C 62.455 139.756,62.065 137.065,64.067 134.924 C 66.552 132.267,68.536 132.003,88.000 131.739 C 117.850 131.335,117.205 131.077,124.664 146.400 C 131.433 160.305,134.614 166.411,139.740 175.341 C 140.861 177.293,149.091 189.630,150.721 191.800 C 158.498 202.157,164.080 203.589,167.096 196.000 C 167.314 195.450,167.678 194.550,167.905 194.000 C 170.272 188.250,170.652 157.889,168.456 150.000 C 166.465 142.847,164.679 140.985,157.252 138.316 C 154.482 137.320,153.371 136.168,153.745 134.677 C 154.393 132.093,160.415 127.987,165.000 127.003 C 168.310 126.292,170.968 125.926,174.672 125.671 C 176.911 125.516,178.887 125.246,179.063 125.071 C 179.466 124.667,198.068 125.038,203.400 125.556 " stroke="none" fill="#4169e1" fill-rule="evenodd"></path><path id="path2" d="M210.300 1.900 C 216.735 1.962,227.265 1.962,233.700 1.900 C 240.135 1.838,234.870 1.787,222.000 1.787 C 209.130 1.787,203.865 1.838,210.300 1.900 M130.928 2.300 C 137.049 2.362,146.949 2.362,152.928 2.300 C 158.908 2.237,153.900 2.187,141.800 2.187 C 129.700 2.187,124.808 2.238,130.928 2.300 M284.700 2.299 C 288.935 2.364,295.865 2.364,300.100 2.299 C 304.335 2.235,300.870 2.182,292.400 2.182 C 283.930 2.182,280.465 2.235,284.700 2.299 M84.927 2.700 C 89.727 2.764,97.467 2.763,102.127 2.699 C 106.787 2.636,102.860 2.583,93.400 2.583 C 83.940 2.583,80.127 2.636,84.927 2.700 M318.400 2.658 C 321.440 2.926,332.735 2.984,332.088 2.728 C 331.710 2.579,328.160 2.474,324.200 2.495 C 320.240 2.517,317.630 2.590,318.400 2.658 M69.100 3.089 C 69.815 3.178,70.985 3.178,71.700 3.089 C 72.415 3.001,71.830 2.928,70.400 2.928 C 68.970 2.928,68.385 3.001,69.100 3.089 M63.800 3.610 C 63.266 3.847,63.598 3.886,64.800 3.727 C 65.790 3.596,66.675 3.424,66.767 3.344 C 67.114 3.043,64.564 3.272,63.800 3.610 M333.700 3.476 C 334.085 3.576,334.715 3.576,335.100 3.476 C 335.485 3.375,335.170 3.293,334.400 3.293 C 333.630 3.293,333.315 3.375,333.700 3.476 M60.000 4.418 C 59.562 4.715,59.724 4.752,60.600 4.556 C 62.071 4.227,62.390 3.998,61.367 4.006 C 60.945 4.009,60.330 4.195,60.000 4.418 M39.800 12.800 C 39.140 13.237,38.780 13.592,39.000 13.588 C 39.401 13.582,41.576 12.023,41.200 12.012 C 41.090 12.008,40.460 12.363,39.800 12.800 M359.600 12.767 C 360.563 13.552,361.200 13.808,361.200 13.410 C 361.200 13.306,360.615 12.935,359.900 12.586 L 358.600 11.952 359.600 12.767 M33.100 17.204 C 31.615 18.300,30.400 19.293,30.400 19.411 C 30.400 19.638,33.320 17.600,35.124 16.113 C 37.049 14.525,35.867 15.163,33.100 17.204 M366.400 16.933 C 366.400 17.043,367.120 17.703,368.000 18.400 C 368.880 19.097,369.600 19.577,369.600 19.467 C 369.600 19.357,368.880 18.697,368.000 18.000 C 367.120 17.303,366.400 16.823,366.400 16.933 M28.678 20.634 C 28.060 21.165,27.700 21.594,27.878 21.587 C 28.321 21.568,30.151 20.017,29.957 19.824 C 29.870 19.738,29.295 20.103,28.678 20.634 M370.000 19.714 C 370.000 19.818,371.215 20.953,372.700 22.237 C 374.185 23.522,375.040 24.154,374.600 23.642 C 373.684 22.576,370.000 19.430,370.000 19.714 M24.400 24.600 C 23.428 25.590,22.723 26.400,22.833 26.400 C 22.943 26.400,23.828 25.590,24.800 24.600 C 25.772 23.610,26.477 22.800,26.367 22.800 C 26.257 22.800,25.372 23.610,24.400 24.600 M378.994 28.500 C 380.041 29.765,380.987 30.800,381.098 30.800 C 381.384 30.800,380.445 29.653,378.645 27.800 C 377.391 26.510,377.458 26.645,378.994 28.500 M21.635 27.540 C 21.325 27.903,20.525 28.785,19.857 29.500 C 19.189 30.215,18.813 30.783,19.022 30.762 C 19.480 30.717,22.584 27.248,22.359 27.033 C 22.272 26.949,21.946 27.178,21.635 27.540 M17.341 32.700 C 16.736 33.525,15.962 34.546,15.621 34.969 C 15.279 35.392,15.208 35.616,15.463 35.468 C 15.971 35.173,18.909 31.200,18.620 31.200 C 18.521 31.200,17.946 31.875,17.341 32.700 M383.217 33.800 C 385.644 37.071,385.977 37.437,385.033 35.800 C 384.652 35.140,383.621 33.790,382.740 32.800 C 381.455 31.355,381.549 31.552,383.217 33.800 M386.585 38.700 C 387.202 39.635,387.783 40.400,387.876 40.400 C 388.164 40.400,386.633 37.966,386.032 37.469 C 385.720 37.211,385.968 37.765,386.585 38.700 M3.449 61.415 C 3.312 61.773,3.218 62.456,3.241 62.933 C 3.267 63.481,3.403 63.286,3.610 62.403 C 3.960 60.916,3.865 60.333,3.449 61.415 M396.846 64.000 C 396.865 64.330,397.024 65.050,397.200 65.600 L 397.520 66.600 397.554 65.600 C 397.573 65.050,397.413 64.330,397.200 64.000 C 396.855 63.467,396.816 63.467,396.846 64.000 M2.656 64.884 C 2.521 65.388,2.428 66.250,2.449 66.800 C 2.472 67.389,2.631 67.071,2.836 66.025 C 3.203 64.152,3.073 63.327,2.656 64.884 M398.165 76.200 C 398.166 80.160,398.226 81.726,398.298 79.680 C 398.371 77.634,398.371 74.394,398.298 72.480 C 398.224 70.566,398.165 72.240,398.165 76.200 M1.787 93.600 C 1.787 106.030,1.838 111.115,1.900 104.900 C 1.962 98.685,1.962 88.515,1.900 82.300 C 1.838 76.085,1.787 81.170,1.787 93.600 M398.575 103.200 C 398.575 109.030,398.631 111.415,398.699 108.500 C 398.767 105.585,398.767 100.815,398.699 97.900 C 398.631 94.985,398.575 97.370,398.575 103.200 M1.390 146.600 C 1.390 163.100,1.439 169.908,1.500 161.730 C 1.560 153.551,1.560 140.051,1.500 131.730 C 1.439 123.408,1.390 130.100,1.390 146.600 M178.715 125.128 C 178.339 125.278,182.985 125.400,189.040 125.400 C 195.095 125.400,199.633 125.283,199.124 125.140 C 197.890 124.792,179.587 124.782,178.715 125.128 M170.400 126.009 C 169.989 126.280,170.557 126.324,172.200 126.147 C 173.520 126.005,174.675 125.824,174.767 125.744 C 175.168 125.396,170.939 125.652,170.400 126.009 M202.833 125.745 C 202.925 125.825,204.260 125.998,205.800 126.128 C 207.566 126.278,208.305 126.235,207.800 126.011 C 207.047 125.677,202.475 125.433,202.833 125.745 M166.000 126.800 C 165.236 127.294,166.058 127.294,167.600 126.800 L 168.600 126.480 167.600 126.446 C 167.050 126.427,166.330 126.587,166.000 126.800 M210.800 126.800 C 212.236 127.260,212.884 127.260,212.600 126.800 C 212.464 126.580,211.778 126.418,211.076 126.440 C 209.857 126.478,209.845 126.494,210.800 126.800 M157.600 130.465 C 154.950 132.467,154.054 133.445,153.745 134.677 C 153.493 135.682,154.503 137.600,155.285 137.600 C 155.541 137.600,155.357 137.233,154.875 136.784 C 153.191 135.215,154.068 133.526,158.115 130.547 C 159.420 129.586,160.333 128.801,160.144 128.802 C 159.955 128.803,158.810 129.551,157.600 130.465 M218.524 129.703 C 219.142 130.198,219.993 131.052,220.415 131.601 C 220.837 132.151,221.186 132.466,221.191 132.301 C 221.206 131.804,218.340 128.800,217.853 128.802 C 217.604 128.803,217.906 129.209,218.524 129.703 M85.326 131.900 C 89.466 131.965,96.126 131.965,100.126 131.899 C 104.127 131.834,100.740 131.781,92.600 131.781 C 84.460 131.781,81.187 131.834,85.326 131.900 M69.800 132.411 C 69.072 132.602,69.702 132.641,71.400 132.509 C 72.940 132.389,74.275 132.225,74.367 132.145 C 74.673 131.878,71.016 132.091,69.800 132.411 M111.600 132.519 C 116.370 133.647,118.894 135.613,121.201 140.000 C 122.069 141.650,122.784 142.861,122.789 142.690 C 122.917 138.928,116.102 132.684,111.337 132.197 L 109.400 131.999 111.600 132.519 M295.728 132.700 C 300.968 132.763,309.428 132.763,314.528 132.700 C 319.627 132.636,315.340 132.585,305.000 132.585 C 294.660 132.585,290.487 132.637,295.728 132.700 M65.800 133.544 C 62.948 135.306,62.207 137.670,63.383 141.262 C 64.540 144.802,72.704 162.229,73.045 161.888 C 73.134 161.800,71.524 158.234,69.467 153.964 C 62.002 138.463,61.617 135.806,66.508 133.586 C 67.439 133.163,67.930 132.814,67.600 132.810 C 67.270 132.806,66.460 133.137,65.800 133.544 M276.200 133.202 C 275.519 133.376,276.385 133.418,278.200 133.298 C 279.960 133.183,281.475 133.023,281.567 132.944 C 281.875 132.677,277.412 132.891,276.200 133.202 M328.505 133.087 C 329.114 133.179,330.014 133.177,330.505 133.082 C 330.997 132.987,330.500 132.911,329.400 132.914 C 328.300 132.917,327.897 132.995,328.505 133.087 M273.452 134.430 C 272.857 134.899,271.358 137.386,270.017 140.130 C 266.619 147.085,262.383 156.516,262.572 156.705 C 262.661 156.794,263.087 156.087,263.518 155.133 C 263.950 154.180,265.598 150.535,267.179 147.032 C 271.106 138.339,271.807 137.016,273.461 135.186 C 275.050 133.426,275.047 133.176,273.452 134.430 M334.282 134.927 C 339.208 140.538,331.964 155.801,311.943 181.994 C 310.684 183.640,309.732 185.065,309.827 185.160 C 309.922 185.256,310.057 185.258,310.127 185.167 C 333.044 155.143,340.857 138.348,333.913 134.035 C 333.208 133.598,333.291 133.798,334.282 134.927 M222.992 157.940 C 222.987 170.564,223.093 177.430,223.237 173.800 C 223.606 164.524,223.653 136.080,223.300 135.864 C 223.135 135.763,222.996 145.697,222.992 157.940 M157.400 138.400 C 158.280 138.807,159.280 139.154,159.622 139.170 C 160.517 139.213,163.961 141.474,165.277 142.882 C 165.895 143.544,166.400 143.907,166.400 143.689 C 166.400 142.460,162.213 139.643,158.472 138.356 C 155.734 137.414,155.308 137.431,157.400 138.400 M398.995 201.000 C 398.995 233.340,399.042 246.511,399.100 230.269 C 399.158 214.026,399.158 187.566,399.100 171.469 C 399.042 155.371,398.995 168.660,398.995 201.000 M123.600 144.962 C 123.600 145.384,128.927 156.007,129.068 155.866 C 129.250 155.683,124.044 144.800,123.774 144.800 C 123.678 144.800,123.600 144.873,123.600 144.962 M167.649 147.246 C 167.882 147.991,168.218 149.140,168.396 149.800 C 168.608 150.592,168.730 150.728,168.753 150.200 C 168.790 149.351,167.927 146.594,167.486 146.153 C 167.342 146.009,167.416 146.501,167.649 147.246 M169.235 155.633 C 169.254 157.045,169.418 159.100,169.598 160.200 C 169.819 161.544,169.856 160.758,169.711 157.800 C 169.474 152.943,169.180 151.607,169.235 155.633 M129.200 156.628 C 129.200 157.151,137.576 172.563,140.054 176.600 C 147.779 189.187,154.262 197.473,158.147 199.727 C 159.352 200.426,159.362 200.426,158.400 199.728 C 154.174 196.662,145.387 185.177,139.740 175.341 C 137.180 170.881,133.322 163.824,131.628 160.500 C 129.741 156.801,129.200 155.937,129.200 156.628 M260.257 160.857 C 259.244 162.887,258.490 164.623,258.582 164.716 C 258.675 164.808,259.583 163.226,260.600 161.200 C 261.617 159.174,262.371 157.438,262.275 157.341 C 262.178 157.245,261.270 158.827,260.257 160.857 M73.267 162.709 C 74.362 165.245,78.277 172.782,78.503 172.790 C 78.669 172.795,77.633 170.460,76.200 167.600 C 74.767 164.740,73.491 162.400,73.364 162.400 C 73.237 162.400,73.193 162.539,73.267 162.709 M257.454 166.173 C 257.094 166.723,256.800 167.263,256.800 167.374 C 256.800 168.425,245.874 185.397,242.419 189.711 C 242.204 189.980,241.441 190.920,240.723 191.800 C 239.945 192.755,239.786 193.086,240.330 192.620 C 242.996 190.335,250.357 179.460,256.958 168.050 C 258.395 165.567,258.762 164.177,257.454 166.173 M78.800 173.353 C 78.800 173.782,79.990 176.000,80.221 176.000 C 80.331 176.000,80.123 175.415,79.759 174.700 C 79.017 173.240,78.800 172.936,78.800 173.353 M0.988 201.000 C 0.988 213.980,1.038 219.232,1.100 212.671 C 1.162 206.111,1.161 195.491,1.100 189.071 C 1.038 182.652,0.987 188.020,0.988 201.000 M81.200 178.138 C 81.200 178.214,82.519 180.689,84.132 183.638 C 88.583 191.780,89.663 193.709,90.375 194.800 C 90.735 195.350,91.255 196.250,91.532 196.800 C 91.809 197.350,92.406 198.250,92.858 198.800 L 93.679 199.800 92.881 198.400 C 92.441 197.630,90.338 193.948,88.205 190.219 C 86.073 186.489,83.712 182.214,82.959 180.719 C 81.796 178.409,81.200 177.535,81.200 178.138 M169.396 184.906 C 169.242 186.756,169.189 188.614,169.278 189.035 C 169.367 189.456,169.571 188.020,169.732 185.845 C 169.892 183.670,169.946 181.812,169.850 181.717 C 169.755 181.621,169.550 183.057,169.396 184.906 M222.879 186.600 C 222.861 187.700,222.995 189.320,223.177 190.200 L 223.508 191.800 223.514 190.400 C 223.518 189.630,223.384 188.010,223.217 186.800 L 222.913 184.600 222.879 186.600 M306.151 189.700 C 302.574 194.465,301.935 195.402,303.250 193.954 C 304.528 192.546,305.228 191.664,306.386 190.000 C 306.923 189.230,307.469 188.510,307.600 188.400 C 308.066 188.009,309.651 185.600,309.442 185.600 C 309.325 185.600,307.844 187.445,306.151 189.700 M168.656 190.884 C 168.521 191.388,168.427 192.160,168.446 192.600 C 168.465 193.040,168.645 192.698,168.846 191.840 C 169.236 190.178,169.070 189.340,168.656 190.884 M237.200 195.568 C 236.210 196.578,234.719 197.988,233.886 198.702 C 233.053 199.416,232.517 200.000,232.693 200.000 C 233.158 200.000,239.438 194.124,239.200 193.911 C 239.090 193.813,238.190 194.559,237.200 195.568 M298.972 199.500 C 296.228 203.370,294.095 206.835,295.095 205.800 C 295.307 205.580,296.813 203.450,298.441 201.067 C 300.068 198.684,301.647 196.389,301.949 195.967 C 302.251 195.545,302.390 195.200,302.259 195.200 C 302.129 195.200,300.649 197.135,298.972 199.500 M165.667 198.977 C 164.768 200.500,163.098 201.062,160.731 200.640 C 159.733 200.462,159.600 200.495,160.200 200.773 C 161.346 201.304,163.242 201.268,164.378 200.693 C 165.230 200.262,167.208 197.600,166.676 197.600 C 166.568 197.600,166.113 198.220,165.667 198.977 M227.513 200.224 C 228.069 200.614,228.966 200.789,229.902 200.691 L 231.400 200.534 229.724 200.467 C 228.802 200.430,227.936 200.220,227.800 200.000 C 227.664 199.780,227.343 199.600,227.087 199.600 C 226.831 199.600,227.023 199.881,227.513 200.224 M93.600 200.129 C 93.600 200.494,95.645 203.600,95.886 203.600 C 96.079 203.600,94.492 200.848,93.936 200.220 C 93.751 200.011,93.600 199.970,93.600 200.129 M96.000 204.213 C 96.000 204.330,96.787 205.635,97.749 207.113 C 98.711 208.591,100.685 211.645,102.137 213.900 C 103.589 216.155,104.866 218.000,104.975 218.000 C 105.198 218.000,104.559 216.952,101.190 211.800 C 99.895 209.820,98.286 207.255,97.614 206.100 C 96.514 204.209,96.000 203.607,96.000 204.213 M291.797 212.900 C 291.659 213.835,291.726 215.050,291.947 215.600 C 292.278 216.423,292.354 216.121,292.375 213.900 C 292.404 210.822,292.166 210.411,291.797 212.900 M293.408 218.400 C 294.401 220.229,297.371 223.431,308.984 235.200 C 334.425 260.981,339.944 270.252,333.685 276.699 C 332.670 277.745,332.276 278.311,332.810 277.958 C 341.635 272.117,335.417 261.013,307.976 233.609 C 302.134 227.774,296.565 222.010,295.602 220.800 C 293.512 218.174,292.955 217.565,293.408 218.400 M108.454 223.292 C 109.414 224.772,110.350 225.987,110.534 225.992 C 110.718 225.996,110.193 225.055,109.367 223.900 C 107.047 220.654,106.511 220.297,108.454 223.292 M1.390 255.200 C 1.390 271.810,1.439 278.605,1.500 270.300 C 1.560 261.995,1.560 248.405,1.500 240.100 C 1.439 231.795,1.390 238.590,1.390 255.200 M111.943 228.118 C 112.640 229.131,113.422 230.090,113.680 230.250 C 113.939 230.409,113.535 229.684,112.784 228.637 C 111.005 226.160,110.294 225.721,111.943 228.118 M114.256 231.200 C 114.958 232.223,120.931 239.770,121.480 240.329 C 122.880 241.752,121.661 239.990,118.558 236.108 C 115.388 232.140,113.145 229.582,114.256 231.200 M123.393 242.400 C 125.082 244.533,128.426 248.109,128.577 247.945 C 128.651 247.865,127.265 246.270,125.497 244.400 C 123.730 242.530,122.783 241.630,123.393 242.400 M232.283 245.939 C 231.889 246.095,232.932 246.222,234.600 246.222 C 236.268 246.222,237.311 246.095,236.917 245.939 C 236.523 245.784,235.480 245.656,234.600 245.656 C 233.720 245.656,232.677 245.784,232.283 245.939 M238.000 246.519 C 238.000 246.628,238.856 247.266,239.902 247.937 C 241.717 249.102,245.529 252.855,254.082 261.900 C 256.215 264.155,258.075 266.000,258.216 266.000 C 258.622 266.000,246.082 252.854,243.200 250.258 C 240.760 248.061,238.000 246.076,238.000 246.519 M130.200 249.940 C 131.080 250.891,133.060 252.758,134.600 254.089 C 137.186 256.324,137.140 256.258,134.000 253.231 C 129.599 248.989,128.194 247.772,130.200 249.940 M228.093 249.500 C 227.057 250.996,226.721 251.600,226.923 251.600 C 227.017 251.600,227.570 250.880,228.153 250.000 C 229.336 248.212,229.284 247.779,228.093 249.500 M224.600 257.200 C 224.450 257.673,224.417 258.150,224.527 258.260 C 224.637 258.370,224.850 258.073,225.000 257.600 C 225.150 257.127,225.183 256.650,225.073 256.540 C 224.963 256.430,224.750 256.727,224.600 257.200 M223.829 261.029 C 223.681 261.615,223.651 262.184,223.761 262.294 C 223.871 262.404,224.081 262.015,224.229 261.429 C 224.376 260.842,224.406 260.273,224.296 260.163 C 224.186 260.053,223.976 260.442,223.829 261.029 M142.805 260.717 C 142.818 261.397,156.400 269.322,156.400 268.650 C 156.400 268.533,154.781 267.602,152.803 266.580 C 150.825 265.558,147.765 263.757,146.003 262.578 C 144.241 261.399,142.802 260.562,142.805 260.717 M223.259 266.000 C 223.220 266.550,223.089 267.450,222.967 268.000 C 222.776 268.862,222.808 268.902,223.197 268.291 C 223.446 267.902,223.577 267.002,223.489 266.291 C 223.364 265.287,223.313 265.222,223.259 266.000 M260.682 268.700 C 265.939 273.807,270.990 277.943,271.431 277.502 C 271.533 277.400,270.900 276.843,270.024 276.263 C 267.986 274.915,263.570 271.094,261.000 268.455 C 259.900 267.325,258.846 266.401,258.657 266.401 C 258.469 266.400,259.380 267.435,260.682 268.700 M158.800 270.000 C 160.010 270.639,161.180 271.162,161.400 271.162 C 161.620 271.162,160.810 270.639,159.600 270.000 C 158.390 269.361,157.220 268.838,157.000 268.838 C 156.780 268.838,157.590 269.361,158.800 270.000 M222.200 272.000 C 222.050 272.473,222.017 272.950,222.127 273.060 C 222.237 273.170,222.450 272.873,222.600 272.400 C 222.750 271.927,222.783 271.450,222.673 271.340 C 222.563 271.230,222.350 271.527,222.200 272.000 M174.400 275.600 C 174.730 275.813,175.360 275.978,175.800 275.966 L 176.600 275.944 175.800 275.600 C 174.604 275.086,173.605 275.086,174.400 275.600 M178.000 276.400 C 178.330 276.613,179.050 276.773,179.600 276.754 L 180.600 276.720 179.600 276.400 C 178.058 275.906,177.236 275.906,178.000 276.400 M183.400 277.213 C 184.607 277.507,193.478 277.727,193.167 277.454 C 193.075 277.374,190.570 277.221,187.600 277.114 C 184.630 277.007,182.740 277.052,183.400 277.213 M217.600 277.200 L 216.200 277.495 217.476 277.547 C 218.178 277.576,218.864 277.420,219.000 277.200 C 219.136 276.980,219.192 276.824,219.124 276.853 C 219.056 276.882,218.370 277.038,217.600 277.200 M202.300 277.898 C 204.555 277.970,208.245 277.970,210.500 277.898 C 212.755 277.827,210.910 277.769,206.400 277.769 C 201.890 277.769,200.045 277.827,202.300 277.898 M272.800 278.367 C 273.350 278.815,274.055 279.186,274.367 279.191 C 275.094 279.203,274.912 279.052,273.200 278.227 L 271.800 277.552 272.800 278.367 M329.867 279.244 C 329.024 279.689,327.584 280.201,326.667 280.383 C 325.095 280.694,325.074 280.715,326.304 280.756 C 327.573 280.799,330.990 279.464,331.429 278.754 C 331.720 278.282,331.646 278.306,329.867 279.244 M289.900 281.100 C 296.335 281.162,306.865 281.162,313.300 281.100 C 319.735 281.038,314.470 280.987,301.600 280.987 C 288.730 280.987,283.465 281.038,289.900 281.100 M1.787 308.200 C 1.787 320.740,1.838 325.812,1.900 319.472 C 1.962 313.131,1.962 302.871,1.900 296.672 C 1.838 290.472,1.787 295.660,1.787 308.200 M398.575 298.600 C 398.575 304.540,398.631 307.026,398.699 304.124 C 398.767 301.222,398.767 296.362,398.699 293.324 C 398.631 290.286,398.575 292.660,398.575 298.600 M398.085 325.200 C 398.032 329.050,397.896 332.650,397.783 333.200 L 397.577 334.200 397.998 333.241 C 398.255 332.653,398.372 329.557,398.299 325.241 L 398.180 318.200 398.085 325.200 M2.428 335.033 C 2.444 335.675,2.616 336.560,2.810 337.000 C 3.047 337.534,3.086 337.202,2.927 336.000 C 2.646 333.880,2.388 333.380,2.428 335.033 M397.246 336.067 C 397.221 336.434,397.096 337.064,396.970 337.467 C 396.752 338.162,396.763 338.163,397.197 337.487 C 397.448 337.096,397.573 336.466,397.473 336.087 C 397.311 335.468,397.288 335.466,397.246 336.067 M3.206 338.833 C 3.209 339.365,3.389 340.070,3.606 340.400 C 3.882 340.822,3.923 340.585,3.742 339.600 C 3.425 337.875,3.198 337.549,3.206 338.833 M385.391 364.700 C 384.110 366.625,381.893 369.624,380.465 371.364 C 379.037 373.104,378.072 374.402,378.321 374.249 C 379.655 373.424,388.613 361.200,387.884 361.200 C 387.794 361.200,386.672 362.775,385.391 364.700 M16.406 367.748 C 17.151 368.786,18.026 369.853,18.348 370.118 C 18.671 370.383,18.258 369.655,17.430 368.501 C 16.603 367.346,15.729 366.280,15.488 366.131 C 15.247 365.982,15.660 366.710,16.406 367.748 M21.015 373.400 C 22.270 374.830,23.376 376.000,23.472 376.000 C 23.790 376.000,19.407 370.854,19.066 370.827 C 18.883 370.812,19.760 371.970,21.015 373.400 M26.215 378.640 C 28.551 380.896,30.169 382.270,29.866 381.741 C 29.722 381.489,28.478 380.337,27.102 379.181 C 25.638 377.952,25.270 377.728,26.215 378.640 M371.000 380.846 C 367.623 383.638,366.920 384.498,369.870 382.229 C 372.056 380.548,374.016 378.744,373.562 378.831 C 373.473 378.848,372.320 379.755,371.000 380.846 M31.800 383.370 C 32.680 384.174,33.760 385.026,34.200 385.265 C 35.256 385.837,34.643 385.272,32.200 383.423 L 30.200 381.909 31.800 383.370 M363.892 386.165 C 360.967 388.158,359.460 389.341,360.800 388.593 C 362.141 387.845,367.200 384.363,367.200 384.188 C 367.200 383.909,367.240 383.885,363.892 386.165 M38.800 388.190 C 38.800 388.294,39.385 388.665,40.100 389.014 L 41.400 389.648 40.400 388.833 C 39.437 388.048,38.800 387.792,38.800 388.190 M63.400 397.990 C 64.164 398.328,66.714 398.557,66.367 398.256 C 66.275 398.176,65.390 398.004,64.400 397.873 C 63.198 397.714,62.866 397.753,63.400 397.990 M334.100 398.276 C 334.485 398.376,335.115 398.376,335.500 398.276 C 335.885 398.175,335.570 398.093,334.800 398.093 C 334.030 398.093,333.715 398.175,334.100 398.276 M200.200 398.800 L 68.200 399.002 200.000 399.073 C 272.792 399.112,332.158 398.990,332.600 398.800 C 333.040 398.611,333.130 398.488,332.800 398.527 C 332.470 398.566,272.800 398.689,200.200 398.800 " stroke="none" fill="#6485e6" fill-rule="evenodd"></path><path id="path3" d="M154.300 1.900 C 162.495 1.960,175.905 1.960,184.100 1.900 C 192.295 1.839,185.590 1.790,169.200 1.790 C 152.810 1.790,146.105 1.839,154.300 1.900 M258.100 1.900 C 265.305 1.961,277.095 1.961,284.300 1.900 C 291.505 1.839,285.610 1.789,271.200 1.789 C 256.790 1.789,250.895 1.839,258.100 1.900 M97.526 2.300 C 101.776 2.364,108.616 2.364,112.726 2.299 C 116.837 2.234,113.360 2.181,105.000 2.181 C 96.640 2.182,93.277 2.235,97.526 2.300 M312.323 2.299 C 315.031 2.368,319.351 2.368,321.923 2.299 C 324.495 2.229,322.280 2.172,317.000 2.173 C 311.720 2.173,309.615 2.230,312.323 2.299 M66.800 2.781 C 66.030 2.932,67.740 2.984,70.600 2.895 C 73.460 2.807,75.980 2.673,76.200 2.599 C 76.970 2.338,68.186 2.508,66.800 2.781 M332.200 2.800 C 332.640 2.989,333.360 3.138,333.800 3.132 C 334.443 3.123,334.404 3.057,333.600 2.800 C 332.232 2.362,331.181 2.362,332.200 2.800 M62.600 3.600 C 62.096 3.817,62.022 3.944,62.400 3.944 C 62.730 3.944,63.360 3.789,63.800 3.600 C 64.304 3.383,64.378 3.256,64.000 3.256 C 63.670 3.256,63.040 3.411,62.600 3.600 M336.400 3.600 C 337.768 4.038,338.819 4.038,337.800 3.600 C 337.360 3.411,336.640 3.262,336.200 3.268 C 335.557 3.277,335.596 3.343,336.400 3.600 M56.400 5.200 C 55.867 5.545,55.867 5.588,56.400 5.588 C 56.730 5.588,57.270 5.413,57.600 5.200 C 58.133 4.855,58.133 4.812,57.600 4.812 C 57.270 4.812,56.730 4.987,56.400 5.200 M354.800 9.783 C 354.800 9.963,357.202 11.200,357.550 11.200 C 357.897 11.200,356.294 10.167,355.500 9.879 C 355.115 9.739,354.800 9.696,354.800 9.783 M35.858 14.900 C 33.739 16.275,32.005 17.515,32.003 17.655 C 32.001 17.856,39.287 13.190,39.967 12.556 C 40.671 11.898,39.120 12.783,35.858 14.900 M360.611 12.939 C 362.519 14.241,363.600 14.878,363.600 14.699 C 363.600 14.445,360.504 12.400,360.120 12.400 C 359.956 12.400,360.177 12.642,360.611 12.939 M364.969 15.682 C 371.668 20.943,374.260 23.164,376.945 25.943 C 378.674 27.735,380.200 29.200,380.335 29.200 C 381.394 29.200,369.526 18.470,365.800 16.059 C 364.700 15.347,364.326 15.178,364.969 15.682 M29.600 19.634 L 27.800 21.265 29.700 19.784 C 31.366 18.486,31.859 17.997,31.500 18.001 C 31.445 18.002,30.590 18.736,29.600 19.634 M24.188 24.412 C 22.445 26.165,21.129 27.600,21.264 27.600 C 21.597 27.600,27.656 21.523,27.489 21.356 C 27.417 21.283,25.931 22.659,24.188 24.412 M19.775 29.300 L 18.600 30.600 19.900 29.425 C 20.615 28.779,21.200 28.194,21.200 28.125 C 21.200 27.816,20.870 28.088,19.775 29.300 M381.144 30.700 C 381.582 31.305,382.509 32.430,383.203 33.200 C 383.897 33.970,383.614 33.475,382.573 32.100 C 380.727 29.659,379.559 28.516,381.144 30.700 M16.321 33.500 C 15.700 34.219,12.797 38.529,12.211 39.600 C 11.528 40.849,12.716 39.326,14.941 36.100 C 17.114 32.950,17.626 31.985,16.321 33.500 M388.400 41.200 C 388.849 42.080,389.306 42.800,389.416 42.800 C 389.526 42.800,389.249 42.080,388.800 41.200 C 388.351 40.320,387.894 39.600,387.784 39.600 C 387.674 39.600,387.951 40.320,388.400 41.200 M10.640 42.398 C 10.040 43.499,9.636 44.400,9.741 44.400 C 10.008 44.400,12.043 40.710,11.871 40.537 C 11.793 40.460,11.239 41.297,10.640 42.398 M4.200 57.600 C 4.050 58.073,4.017 58.550,4.127 58.660 C 4.237 58.770,4.450 58.473,4.600 58.000 C 4.750 57.527,4.783 57.050,4.673 56.940 C 4.563 56.830,4.350 57.127,4.200 57.600 M396.834 62.600 C 396.822 63.040,396.987 63.670,397.200 64.000 C 397.714 64.795,397.714 63.796,397.200 62.600 L 396.856 61.800 396.834 62.600 M2.629 63.829 C 2.481 64.415,2.438 64.972,2.532 65.066 C 2.627 65.160,2.824 64.758,2.971 64.171 C 3.119 63.585,3.162 63.028,3.068 62.934 C 2.973 62.840,2.776 63.242,2.629 63.829 M397.680 66.600 C 397.680 67.040,397.824 67.850,398.000 68.400 C 398.254 69.192,398.320 69.233,398.320 68.600 C 398.320 68.160,398.176 67.350,398.000 66.800 C 397.746 66.008,397.680 65.967,397.680 66.600 M1.853 68.036 C 1.714 68.731,1.621 69.773,1.647 70.350 C 1.672 70.927,1.855 70.427,2.052 69.239 C 2.437 66.921,2.273 65.934,1.853 68.036 M398.741 108.000 C 398.833 126.810,398.974 142.275,399.054 142.367 C 399.294 142.641,399.117 95.832,398.834 84.400 C 398.690 78.570,398.648 89.190,398.741 108.000 M1.100 107.800 C 0.936 121.880,0.830 143.390,0.866 155.600 C 0.918 172.948,1.004 168.446,1.262 135.000 C 1.444 111.460,1.549 89.950,1.496 87.200 C 1.443 84.450,1.265 93.720,1.100 107.800 M180.833 125.346 C 180.925 125.426,185.950 125.572,192.000 125.671 C 198.050 125.770,201.380 125.723,199.400 125.568 C 195.645 125.273,180.543 125.092,180.833 125.346 M176.100 125.891 C 176.925 125.978,178.275 125.978,179.100 125.891 C 179.925 125.805,179.250 125.734,177.600 125.734 C 175.950 125.734,175.275 125.805,176.100 125.891 M169.440 126.442 C 168.142 126.631,166.976 126.891,166.848 127.019 C 166.617 127.250,169.323 126.964,172.800 126.391 C 175.503 125.945,172.535 125.990,169.440 126.442 M205.400 126.404 C 209.454 127.005,211.935 127.201,210.739 126.824 C 210.156 126.641,208.176 126.391,206.339 126.269 C 203.340 126.070,203.244 126.084,205.400 126.404 M162.113 128.333 C 160.745 128.920,159.125 129.815,158.513 130.322 L 157.400 131.244 158.633 130.443 C 159.996 129.557,163.538 128.062,165.400 127.588 C 166.479 127.313,166.499 127.281,165.600 127.274 C 165.050 127.269,163.481 127.746,162.113 128.333 M213.000 127.581 C 215.093 128.103,217.349 129.196,219.000 130.488 C 220.489 131.653,220.531 131.664,219.608 130.647 C 218.426 129.343,214.073 127.183,212.743 127.241 C 211.939 127.276,211.977 127.326,213.000 127.581 M155.447 132.801 C 153.072 135.430,153.727 136.867,157.895 138.173 C 160.994 139.144,162.905 140.151,164.918 141.874 L 166.600 143.313 164.800 141.538 C 163.610 140.365,162.051 139.387,160.200 138.652 C 153.764 136.097,153.358 135.556,155.822 132.828 C 156.631 131.933,157.203 131.200,157.093 131.200 C 156.983 131.200,156.242 131.921,155.447 132.801 M72.600 132.363 C 71.500 132.493,79.939 132.600,91.353 132.600 C 102.768 132.600,111.408 132.475,110.553 132.323 C 108.687 131.990,75.448 132.025,72.600 132.363 M220.760 132.600 C 221.434 133.905,221.988 134.628,221.985 134.200 C 221.983 133.980,221.614 133.350,221.164 132.800 C 220.621 132.136,220.485 132.069,220.760 132.600 M66.508 133.586 C 63.356 135.017,62.554 137.598,63.977 141.734 C 64.849 144.268,68.453 152.081,68.656 151.877 C 68.728 151.805,67.798 149.590,66.590 146.954 C 62.263 137.520,62.789 134.432,68.931 133.218 C 70.339 132.939,70.413 132.882,69.400 132.853 C 68.740 132.833,67.439 133.163,66.508 133.586 M279.400 133.167 C 278.080 133.295,289.330 133.400,304.400 133.400 C 319.470 133.400,330.720 133.285,329.400 133.143 C 326.431 132.826,282.704 132.847,279.400 133.167 M114.800 133.790 C 114.800 133.894,115.306 134.241,115.924 134.561 C 118.200 135.738,119.613 137.815,123.266 145.358 C 130.922 161.166,138.608 175.609,140.858 178.415 L 141.648 179.400 141.005 178.200 C 140.651 177.540,139.717 175.920,138.930 174.600 C 135.846 169.428,130.766 159.855,127.366 152.805 C 119.868 137.256,119.579 136.743,117.400 135.107 C 115.533 133.704,114.800 133.333,114.800 133.790 M273.458 135.188 C 271.808 137.014,270.973 138.623,266.387 148.800 C 264.553 152.870,262.019 158.268,260.755 160.795 C 259.491 163.323,258.523 165.457,258.604 165.538 C 258.820 165.754,262.774 157.758,266.032 150.516 C 272.039 137.166,273.215 135.105,275.366 134.169 C 276.369 133.732,276.440 133.628,275.747 133.616 C 275.246 133.606,274.299 134.257,273.458 135.188 M333.032 134.354 C 337.894 137.319,335.247 147.369,325.831 161.700 C 325.433 162.305,325.198 162.800,325.307 162.800 C 326.021 162.800,332.231 151.790,334.172 147.083 C 336.890 140.493,336.013 133.593,332.459 133.601 C 332.049 133.602,332.267 133.888,333.032 134.354 M222.270 135.200 C 222.452 135.530,222.694 143.180,222.809 152.200 L 223.018 168.600 223.109 152.376 C 223.189 138.122,223.124 136.059,222.570 135.376 C 222.224 134.949,222.089 134.870,222.270 135.200 M168.012 147.200 C 168.012 147.530,168.187 148.070,168.400 148.400 C 168.745 148.933,168.788 148.933,168.788 148.400 C 168.788 148.070,168.613 147.530,168.400 147.200 C 168.055 146.667,168.012 146.667,168.012 147.200 M169.062 151.400 C 169.196 152.280,169.372 153.075,169.453 153.167 C 169.756 153.510,169.529 151.368,169.181 150.600 C 168.929 150.042,168.893 150.285,169.062 151.400 M68.800 152.547 C 68.800 153.003,80.440 176.164,80.888 176.600 C 81.478 177.173,81.596 177.420,75.055 164.400 C 69.222 152.788,68.800 151.988,68.800 152.547 M169.800 171.600 C 169.800 180.950,169.919 187.700,170.065 186.600 C 170.406 184.024,170.402 159.689,170.060 156.800 C 169.917 155.590,169.800 162.250,169.800 171.600 M321.423 168.300 C 319.467 171.105,313.898 178.710,309.047 185.200 C 296.182 202.413,291.541 209.602,291.627 212.189 C 291.641 212.635,291.885 212.260,292.168 211.355 C 293.452 207.252,297.638 200.976,310.421 183.987 C 318.353 173.444,325.601 163.200,325.128 163.200 C 325.046 163.200,323.378 165.495,321.423 168.300 M256.608 168.612 C 255.805 170.049,253.986 173.121,252.566 175.440 C 251.146 177.759,250.150 179.554,250.353 179.429 C 250.978 179.043,258.646 166.000,258.248 166.000 C 258.150 166.000,257.412 167.175,256.608 168.612 M81.291 177.400 C 81.832 179.273,94.090 200.732,99.000 208.400 C 118.023 238.111,133.048 254.967,149.000 264.490 C 154.215 267.603,166.159 273.174,166.624 272.709 C 166.731 272.602,165.690 272.105,164.310 271.604 C 137.818 261.997,113.566 235.440,86.611 186.523 C 82.215 178.544,81.040 176.529,81.291 177.400 M141.814 180.000 C 143.786 183.573,150.213 192.563,152.533 194.993 C 153.376 195.877,152.884 195.114,151.439 193.297 C 149.994 191.481,147.346 187.791,145.554 185.097 C 142.618 180.684,140.895 178.335,141.814 180.000 M248.237 182.300 C 247.240 183.853,247.099 184.210,247.801 183.400 C 248.819 182.226,250.172 180.000,249.867 180.000 C 249.782 180.000,249.049 181.035,248.237 182.300 M245.144 186.700 C 243.875 188.232,243.419 188.942,243.881 188.665 C 244.393 188.358,246.169 186.000,245.889 186.000 C 245.798 186.000,245.463 186.315,245.144 186.700 M222.893 190.200 C 222.894 190.860,223.032 191.940,223.200 192.600 C 223.623 194.263,223.642 192.626,223.223 190.600 C 222.945 189.255,222.892 189.191,222.893 190.200 M240.566 192.446 C 239.045 194.231,236.720 196.682,235.400 197.893 C 233.249 199.865,233.212 199.924,235.037 198.462 C 236.158 197.565,238.308 195.429,239.815 193.715 C 243.402 189.636,243.761 189.200,243.528 189.200 C 243.420 189.200,242.087 190.661,240.566 192.446 M169.050 190.850 C 168.717 192.517,169.040 192.840,169.400 191.200 C 169.552 190.509,169.593 189.859,169.491 189.758 C 169.389 189.656,169.191 190.147,169.050 190.850 M166.800 197.478 C 166.800 197.703,166.328 198.584,165.752 199.433 C 165.175 200.283,165.007 200.726,165.378 200.418 C 166.219 199.720,167.338 197.605,167.029 197.296 C 166.903 197.170,166.800 197.252,166.800 197.478 M155.798 198.337 C 156.234 198.852,156.953 199.459,157.396 199.686 C 158.245 200.121,158.121 199.987,156.203 198.394 C 155.048 197.435,155.034 197.433,155.798 198.337 M225.560 198.200 C 226.234 199.505,226.788 200.228,226.785 199.800 C 226.783 199.580,226.414 198.950,225.964 198.400 C 225.421 197.736,225.285 197.669,225.560 198.200 M231.859 200.274 C 231.708 200.425,230.823 200.672,229.893 200.824 C 228.246 201.092,228.238 201.101,229.600 201.136 C 230.370 201.156,231.450 200.914,232.000 200.600 C 232.550 200.286,232.805 200.022,232.567 200.014 C 232.328 200.006,232.010 200.123,231.859 200.274 M160.538 201.294 C 160.792 201.456,161.540 201.588,162.200 201.588 C 162.860 201.588,163.608 201.456,163.862 201.294 C 164.116 201.132,163.368 201.000,162.200 201.000 C 161.032 201.000,160.284 201.132,160.538 201.294 M291.600 215.678 C 291.600 217.767,296.188 223.065,308.157 234.800 C 322.779 249.134,331.405 259.619,334.455 266.767 C 335.073 268.215,335.583 269.125,335.589 268.789 C 335.666 264.461,326.743 253.195,308.984 235.200 C 295.619 221.656,294.341 220.235,292.634 217.026 C 292.065 215.956,291.600 215.350,291.600 215.678 M0.855 252.433 C 0.886 267.925,1.033 289.420,1.184 300.200 C 1.334 310.980,1.374 298.380,1.273 272.200 C 1.172 246.020,1.024 224.525,0.945 224.433 C 0.865 224.342,0.825 236.942,0.855 252.433 M232.446 245.563 C 232.107 245.778,232.651 245.832,233.846 245.704 C 234.921 245.588,235.875 245.428,235.967 245.347 C 236.329 245.028,232.965 245.235,232.446 245.563 M229.285 247.561 C 227.736 249.157,225.903 252.212,225.421 254.000 C 225.273 254.550,225.787 253.723,226.563 252.163 C 227.397 250.486,228.713 248.645,229.778 247.663 C 230.770 246.748,231.406 246.000,231.191 246.000 C 230.975 246.000,230.118 246.702,229.285 247.561 M239.483 247.300 C 242.027 248.916,244.112 250.900,252.200 259.401 C 264.477 272.305,268.309 275.645,274.472 278.815 L 278.344 280.806 301.872 280.700 L 325.400 280.593 301.957 280.497 L 278.514 280.400 274.957 278.649 C 268.700 275.570,264.957 272.231,248.193 254.777 C 243.238 249.617,238.964 246.000,237.824 246.000 C 237.611 246.000,238.358 246.585,239.483 247.300 M224.049 258.600 C 224.016 259.040,223.896 259.850,223.783 260.400 L 223.577 261.400 224.006 260.419 C 224.242 259.879,224.361 259.069,224.272 258.619 C 224.113 257.821,224.107 257.821,224.049 258.600 M398.896 279.600 C 398.842 290.710,398.723 306.190,398.629 314.000 L 398.460 328.200 398.825 314.800 C 399.025 307.430,399.145 291.950,399.091 280.400 L 398.993 259.400 398.896 279.600 M223.040 264.640 C 222.890 266.103,222.849 267.382,222.948 267.482 C 223.048 267.581,223.257 266.471,223.413 265.013 C 223.569 263.556,223.611 262.277,223.505 262.172 C 223.399 262.066,223.190 263.177,223.040 264.640 M222.454 269.867 C 222.425 270.344,222.296 271.064,222.170 271.467 C 221.952 272.161,221.964 272.162,222.396 271.488 C 222.647 271.097,222.775 270.377,222.681 269.888 C 222.509 269.001,222.509 269.001,222.454 269.867 M335.600 271.213 C 335.600 275.121,331.975 278.771,326.906 279.965 C 325.693 280.251,325.604 280.327,326.446 280.360 C 328.156 280.425,333.008 277.758,334.419 275.976 C 335.594 274.493,336.696 269.600,335.856 269.600 C 335.715 269.600,335.600 270.326,335.600 271.213 M220.990 274.324 C 220.544 275.157,219.590 276.105,218.800 276.499 C 218.030 276.884,217.691 277.199,218.046 277.199 C 219.304 277.201,222.576 273.643,221.920 272.987 C 221.843 272.910,221.425 273.512,220.990 274.324 M170.000 273.928 C 170.540 274.257,174.327 275.253,179.200 276.346 C 180.190 276.569,183.250 276.842,186.000 276.955 L 191.000 277.159 185.400 276.630 C 179.785 276.100,177.863 275.775,173.400 274.604 C 169.164 273.492,169.345 273.528,170.000 273.928 M198.900 277.499 C 202.145 277.566,207.455 277.566,210.700 277.499 C 213.945 277.432,211.290 277.377,204.800 277.377 C 198.310 277.377,195.655 277.432,198.900 277.499 M1.693 332.000 C 1.693 332.770,1.775 333.085,1.876 332.700 C 1.976 332.315,1.976 331.685,1.876 331.300 C 1.775 330.915,1.693 331.230,1.693 332.000 M397.856 333.684 C 397.721 334.188,397.627 334.960,397.646 335.400 C 397.665 335.840,397.845 335.498,398.046 334.640 C 398.436 332.978,398.270 332.140,397.856 333.684 M2.456 336.800 C 2.456 337.130,2.611 337.760,2.800 338.200 C 3.017 338.704,3.144 338.778,3.144 338.400 C 3.144 338.070,2.989 337.440,2.800 337.000 C 2.583 336.496,2.456 336.422,2.456 336.800 M397.073 337.753 C 396.923 338.145,396.811 338.766,396.825 339.133 C 396.842 339.575,396.981 339.474,397.237 338.834 C 397.449 338.303,397.561 337.682,397.485 337.454 C 397.409 337.227,397.224 337.361,397.073 337.753 M396.200 341.200 C 396.050 341.673,396.017 342.150,396.127 342.260 C 396.237 342.370,396.450 342.073,396.600 341.600 C 396.750 341.127,396.783 340.650,396.673 340.540 C 396.563 340.430,396.350 340.727,396.200 341.200 M4.012 343.200 C 4.012 343.530,4.187 344.070,4.400 344.400 C 4.745 344.933,4.788 344.933,4.788 344.400 C 4.788 344.070,4.613 343.530,4.400 343.200 C 4.055 342.667,4.012 342.667,4.012 343.200 M390.282 357.011 C 389.692 358.215,389.294 359.200,389.398 359.200 C 389.667 359.200,391.684 355.151,391.505 354.971 C 391.423 354.889,390.873 355.807,390.282 357.011 M10.640 359.202 C 11.239 360.303,11.793 361.140,11.871 361.063 C 12.043 360.890,10.008 357.200,9.741 357.200 C 9.636 357.200,10.040 358.101,10.640 359.202 M12.212 362.000 C 12.996 363.427,16.422 368.367,16.784 368.590 C 17.002 368.725,16.166 367.342,14.927 365.517 C 12.766 362.336,11.486 360.678,12.212 362.000 M385.455 365.200 C 384.431 366.740,383.678 368.000,383.782 368.000 C 383.885 368.000,384.666 366.965,385.515 365.700 C 387.398 362.899,387.695 362.400,387.482 362.400 C 387.392 362.400,386.480 363.660,385.455 365.200 M376.619 375.931 C 373.769 378.939,372.573 380.320,373.962 379.000 C 377.957 375.202,382.525 370.288,381.929 370.431 C 381.858 370.448,379.468 372.923,376.619 375.931 M19.224 371.799 C 19.541 372.239,21.407 374.219,23.371 376.199 L 26.942 379.800 23.795 376.400 C 19.876 372.167,18.469 370.751,19.224 371.799 M28.016 380.673 C 28.031 380.999,31.600 383.774,31.600 383.461 C 31.600 383.370,30.790 382.633,29.800 381.821 C 28.810 381.010,28.007 380.493,28.016 380.673 M367.200 384.255 C 365.023 385.965,364.753 386.240,365.800 385.682 C 366.671 385.218,369.525 382.830,369.200 382.837 C 369.090 382.839,368.190 383.477,367.200 384.255 M34.000 385.318 C 34.000 385.583,39.287 389.023,40.809 389.748 C 42.333 390.475,42.058 390.273,37.846 387.579 C 34.109 385.189,34.000 385.125,34.000 385.318 M355.800 391.237 C 354.260 392.083,353.140 392.780,353.311 392.787 C 353.644 392.801,357.797 390.709,358.800 390.023 C 360.155 389.096,358.416 389.800,355.800 391.237 M342.800 396.400 C 342.267 396.745,342.267 396.788,342.800 396.788 C 343.130 396.788,343.670 396.613,344.000 396.400 C 344.533 396.055,344.533 396.012,344.000 396.012 C 343.670 396.012,343.130 396.187,342.800 396.400 M340.000 397.200 C 339.467 397.545,339.467 397.588,340.000 397.588 C 340.330 397.588,340.870 397.413,341.200 397.200 C 341.733 396.855,341.733 396.812,341.200 396.812 C 340.870 396.812,340.330 396.987,340.000 397.200 M62.000 398.000 C 63.368 398.438,64.419 398.438,63.400 398.000 C 62.960 397.811,62.240 397.662,61.800 397.668 C 61.157 397.677,61.196 397.743,62.000 398.000 M66.200 398.800 C 66.640 398.989,67.360 399.138,67.800 399.132 C 68.443 399.123,68.404 399.057,67.600 398.800 C 66.232 398.362,65.181 398.362,66.200 398.800 M332.600 398.800 C 331.581 399.238,332.632 399.238,334.000 398.800 C 334.804 398.543,334.843 398.477,334.200 398.468 C 333.760 398.462,333.040 398.611,332.600 398.800 " stroke="none" fill="#839ceb" fill-rule="evenodd"></path><path id="path4" d="M94.400 1.654 C 78.272 1.856,67.625 2.148,66.000 2.435 C 62.473 3.056,57.156 4.368,56.305 4.826 C 55.923 5.032,55.278 5.200,54.872 5.200 C 54.466 5.200,54.014 5.319,53.868 5.465 C 53.722 5.611,52.747 6.040,51.701 6.419 C 48.284 7.655,47.486 8.019,47.707 8.241 C 47.827 8.361,48.437 8.200,49.063 7.884 C 50.694 7.059,58.575 4.424,60.754 3.976 C 61.769 3.766,64.040 3.330,65.800 3.006 C 75.215 1.271,326.020 1.081,334.000 2.803 C 344.109 4.983,352.094 7.795,358.148 11.306 C 359.220 11.928,360.175 12.359,360.270 12.264 C 360.539 11.995,358.107 10.601,354.600 9.015 C 350.398 7.113,350.046 6.965,348.400 6.400 C 347.630 6.136,346.640 5.776,346.200 5.600 C 343.986 4.716,338.937 3.351,334.400 2.410 C 328.900 1.268,166.354 0.757,94.400 1.654 M43.000 10.149 C 32.298 15.934,23.206 23.617,16.413 32.616 C 13.854 36.007,10.657 41.191,10.948 41.481 C 11.054 41.587,11.450 41.073,11.828 40.337 C 14.716 34.719,23.033 24.888,28.935 20.118 C 30.511 18.844,31.890 17.697,32.000 17.569 C 32.571 16.903,38.738 13.012,42.032 11.239 C 44.104 10.124,45.530 9.228,45.200 9.248 C 44.870 9.268,43.880 9.674,43.000 10.149 M361.020 12.745 C 361.229 12.935,362.840 14.048,364.600 15.218 C 374.738 21.956,384.370 32.625,389.789 43.119 C 390.618 44.724,391.377 45.956,391.476 45.857 C 391.747 45.587,388.659 39.915,386.240 36.241 C 381.166 28.533,373.303 20.611,365.330 15.175 C 361.791 12.762,359.811 11.646,361.020 12.745 M8.550 45.507 C 6.898 49.182,6.459 50.218,5.796 52.000 C 5.427 52.990,4.977 54.160,4.796 54.600 C 4.615 55.040,4.350 55.850,4.206 56.400 C 4.063 56.950,3.788 57.940,3.596 58.600 C 0.584 68.911,0.427 75.965,0.423 200.600 C 0.421 289.358,0.785 330.979,1.595 334.659 C 1.830 335.727,2.211 337.500,2.441 338.600 C 2.671 339.700,3.005 341.050,3.183 341.600 C 3.361 342.150,3.729 343.410,3.999 344.400 C 4.270 345.390,4.633 346.560,4.805 347.000 C 4.978 347.440,5.336 348.430,5.601 349.200 C 6.545 351.945,9.943 359.117,10.446 359.429 C 10.615 359.533,9.803 357.589,8.642 355.109 C 5.525 348.452,3.691 342.706,2.032 334.400 C 0.388 326.167,0.390 75.470,2.034 67.200 C 3.673 58.959,5.413 53.416,8.378 46.999 C 9.242 45.129,9.825 43.603,9.674 43.607 C 9.523 43.611,9.017 44.466,8.550 45.507 M391.617 46.700 C 391.626 46.865,391.978 47.630,392.400 48.400 C 393.321 50.082,393.465 49.455,392.571 47.661 C 391.967 46.452,391.581 46.063,391.617 46.700 M393.382 50.742 C 394.054 52.860,395.568 56.129,395.583 55.495 C 395.592 55.107,395.392 54.387,395.138 53.895 C 394.171 52.025,394.000 51.594,394.000 51.029 C 394.000 50.709,393.801 50.324,393.557 50.174 C 393.260 49.990,393.202 50.176,393.382 50.742 M395.808 57.401 C 395.959 58.060,396.398 59.770,396.783 61.200 C 399.049 69.598,399.174 76.939,399.173 200.800 C 399.172 293.390,398.907 330.135,398.208 334.400 C 398.026 335.508,398.059 335.620,398.363 334.936 C 399.660 332.021,400.122 81.055,398.851 70.200 C 398.379 66.172,397.867 63.284,397.256 61.200 C 397.030 60.430,396.671 59.111,396.458 58.268 C 395.997 56.448,395.413 55.668,395.808 57.401 M178.600 125.835 C 165.798 126.786,159.041 128.946,155.425 133.243 C 153.464 135.574,154.004 136.187,160.200 138.656 C 168.514 141.970,170.357 147.971,170.375 171.800 C 170.387 187.649,169.921 191.232,166.977 197.890 C 161.364 210.587,145.782 191.858,123.257 145.341 C 116.916 132.247,117.356 132.432,92.600 132.417 C 57.651 132.394,58.355 131.049,75.451 165.200 C 104.090 222.407,129.080 254.287,155.800 267.700 C 171.521 275.592,179.892 277.201,205.223 277.199 C 220.594 277.199,221.195 276.954,222.355 270.230 C 222.987 266.572,223.272 262.438,222.827 263.400 C 222.623 263.840,222.444 265.136,222.428 266.280 C 222.373 270.382,220.850 274.533,218.920 275.841 C 216.655 277.376,185.188 276.618,176.600 274.820 C 165.947 272.591,145.469 262.734,140.000 257.202 C 139.890 257.091,138.990 256.299,138.000 255.443 C 126.823 245.775,117.525 234.564,104.575 215.138 C 100.959 209.714,98.000 205.178,98.000 205.058 C 98.000 204.938,97.478 204.066,96.839 203.120 C 95.625 201.321,92.347 195.759,90.285 192.000 C 89.621 190.790,88.745 189.322,88.339 188.738 C 87.933 188.154,87.600 187.591,87.600 187.487 C 87.600 187.383,86.818 185.880,85.863 184.149 C 81.278 175.840,73.997 161.559,69.675 152.400 C 60.854 133.707,60.797 133.792,82.640 133.131 C 91.040 132.877,98.945 132.866,104.263 133.101 L 112.647 133.472 115.154 134.808 C 118.160 136.410,118.966 137.505,122.366 144.600 C 127.844 156.035,134.020 168.048,136.735 172.553 C 138.311 175.167,139.600 177.376,139.600 177.462 C 139.600 177.912,148.628 191.033,150.706 193.603 C 157.570 202.091,164.057 204.426,166.811 199.400 C 170.216 193.186,170.800 189.098,170.786 171.600 C 170.765 145.338,169.187 141.223,157.532 137.030 C 154.023 135.768,154.148 134.594,158.101 131.674 C 164.455 126.980,180.134 125.082,200.000 126.603 C 214.712 127.728,217.965 128.891,221.037 134.121 L 222.400 136.443 222.400 164.403 C 222.400 184.205,222.531 192.689,222.851 193.481 C 225.583 200.266,227.649 202.364,230.755 201.506 C 238.859 199.269,254.939 176.407,266.562 150.600 C 273.755 134.629,273.751 134.633,279.437 134.142 C 284.579 133.698,326.155 133.697,329.777 134.140 C 337.043 135.030,336.694 142.655,328.785 155.800 C 328.123 156.900,327.464 158.070,327.319 158.400 C 326.891 159.378,320.317 169.110,317.457 173.000 C 316.001 174.980,314.493 177.041,314.105 177.580 C 313.717 178.119,310.394 182.566,306.720 187.462 C 290.885 208.565,288.922 212.796,292.347 218.451 C 294.230 221.561,298.921 226.622,308.622 236.011 C 314.115 241.327,321.855 249.546,324.810 253.200 C 325.788 254.410,326.702 255.490,326.841 255.600 C 327.734 256.309,333.683 265.973,334.399 267.878 C 335.982 272.085,334.880 275.213,330.980 277.576 C 327.383 279.757,327.803 279.722,302.913 279.900 L 279.626 280.066 276.491 278.711 C 270.003 275.906,265.172 271.686,247.800 253.645 C 240.393 245.953,237.185 244.113,232.660 244.962 C 229.225 245.607,223.957 253.195,224.025 257.400 C 224.032 257.840,224.486 256.806,225.035 255.102 C 227.081 248.748,230.835 245.004,234.841 245.324 C 238.975 245.654,242.414 248.387,253.314 260.004 C 264.543 271.970,268.690 275.540,274.987 278.655 L 278.573 280.429 302.787 280.315 L 327.000 280.200 329.218 279.160 C 341.346 273.471,335.882 261.965,308.151 234.800 C 286.249 213.344,286.205 215.764,309.046 185.200 C 334.106 151.666,340.186 138.588,332.755 134.200 C 331.027 133.180,278.731 132.929,275.913 133.927 C 273.335 134.840,272.347 136.501,265.997 150.600 C 261.029 161.630,258.077 167.084,249.800 180.527 C 245.091 188.175,236.039 198.543,232.491 200.354 C 228.953 202.158,227.036 201.196,224.672 196.431 L 223.000 193.062 222.800 164.431 L 222.600 135.800 221.269 133.496 C 218.697 129.047,216.095 127.834,206.400 126.564 C 202.032 125.992,183.150 125.497,178.600 125.835 M223.473 258.953 C 223.323 259.345,223.218 260.236,223.240 260.933 C 223.279 262.167,223.290 262.159,223.649 260.627 C 224.045 258.937,223.924 257.779,223.473 258.953 M397.660 336.680 C 397.627 337.165,397.314 338.605,396.965 339.880 C 396.616 341.156,396.167 342.865,395.968 343.677 C 395.769 344.490,395.238 346.088,394.788 347.229 C 394.339 348.370,394.063 349.396,394.176 349.509 C 394.289 349.622,394.492 349.374,394.627 348.957 C 394.762 348.541,395.024 347.840,395.210 347.400 C 395.565 346.557,396.036 344.977,396.819 342.000 C 397.080 341.010,397.466 339.724,397.677 339.143 C 397.888 338.562,397.985 337.572,397.891 336.943 C 397.766 336.106,397.704 336.036,397.660 336.680 M392.694 352.517 C 392.086 353.839,391.668 355.001,391.765 355.098 C 391.994 355.327,394.072 350.797,393.917 350.407 C 393.853 350.245,393.302 351.194,392.694 352.517 M388.872 360.193 C 381.804 372.762,371.417 382.955,358.000 390.489 C 356.130 391.539,354.879 392.399,355.220 392.399 C 355.561 392.400,356.011 392.244,356.220 392.054 C 356.429 391.863,357.590 391.169,358.800 390.511 C 365.477 386.879,370.575 383.066,376.009 377.641 C 382.253 371.407,386.747 365.426,390.399 358.493 C 392.653 354.213,391.535 355.458,388.872 360.193 M10.824 360.088 C 10.642 362.305,21.063 375.331,27.403 380.813 C 32.779 385.462,42.831 392.102,43.492 391.442 C 43.595 391.338,42.717 390.766,41.540 390.170 C 36.078 387.405,29.518 382.386,23.800 376.596 C 18.206 370.932,16.486 368.720,11.324 360.554 C 11.061 360.139,10.836 359.930,10.824 360.088 M44.000 391.747 C 44.000 391.995,46.663 393.243,51.400 395.215 C 52.207 395.551,56.384 396.918,58.600 397.572 C 59.260 397.766,60.790 398.138,62.000 398.397 C 63.210 398.657,64.851 399.034,65.646 399.235 C 67.606 399.730,332.428 399.723,334.354 399.228 C 335.149 399.024,336.880 398.648,338.200 398.393 C 339.520 398.138,340.913 397.765,341.295 397.565 C 341.677 397.364,342.431 397.200,342.971 397.200 C 343.511 397.200,344.042 397.056,344.151 396.879 C 344.260 396.703,345.272 396.307,346.400 396.000 C 347.528 395.693,348.540 395.297,348.649 395.121 C 348.926 394.672,348.884 394.682,345.568 395.811 C 341.204 397.297,340.582 397.467,336.192 398.375 L 332.185 399.204 199.192 399.079 C 97.512 398.984,65.661 398.841,63.910 398.473 C 59.921 397.635,52.554 395.262,48.711 393.577 C 46.670 392.682,44.775 391.852,44.500 391.732 C 44.225 391.612,44.000 391.619,44.000 391.747 M351.600 393.600 C 350.170 394.248,349.220 394.783,349.488 394.789 C 350.067 394.802,354.400 392.861,354.400 392.588 C 354.400 392.325,354.478 392.296,351.600 393.600 " stroke="none" fill="#c3d0f5" fill-rule="evenodd"></path></g></svg>